<?xml version="1.0" encoding="UTF-8"?>
<svg fill="#FFFFFF" width="100pt" height="100pt" version="1.1" viewBox="0 0 100 100" xmlns="http://www.w3.org/2000/svg">
 <path d="m88.102 19.602-56.102 56c-2 2.3008-5.3984 2.5-7.6992 0.5s-2.5-5.3984-0.5-7.6992l56.602-56.602h-19.504c-3 0-5.3984-2.3984-5.3984-5.3984 0-3.0039 2.3984-5.4023 5.3984-5.4023h32.699c3 0 5.3984 2.3984 5.3984 5.3984v32.699c0 3-2.3984 5.3984-5.3984 5.3984s-5.3984-2.3984-5.3984-5.3984v-19.496zm-10.902 41.297c0-3 2.3984-5.3984 5.3984-5.3984s5.3984 2.3984 5.3984 5.3984v27.199c0 6-4.8984 10.898-10.898 10.898l-65.199 0.003906c-6 0-10.898-4.8984-10.898-10.898v-65.301c0-6 4.8984-10.898 10.898-10.898h27.199c3 0 5.3984 2.3984 5.3984 5.3984s-2.3984 5.3984-5.3984 5.3984h-27.199v65.301h65.301z"/>
</svg>
